<?xml version="1.0" encoding="utf-8"?>
<!-- Generator: Adobe Illustrator 28.0.0, SVG Export Plug-In . SVG Version: 6.00 Build 0)  -->
<svg version="1.1" id="Capa_1" xmlns="http://www.w3.org/2000/svg" xmlns:xlink="http://www.w3.org/1999/xlink" x="0px" y="0px"
	 viewBox="0 0 220 80" style="enable-background:new 0 0 220 80;" xml:space="preserve">
<style type="text/css">
	.st0{fill:#97DF5F;}
	.st1{clip-path:url(#SVGID_00000098222514119273540930000011728973286707489982_);fill:#97DF5F;}
</style>
<g>
	<g>
		<path id="SVGID_1_" class="st0" d="M62.7,10.6l-46,59.5L30.5,30L9.9,42.8l24.4-27.4l-2.5,16.1L62.7,10.6z M33.8,28.5l2.7-17.7
			L2.2,49.4l25.6-16L12.4,78l57-73.7L33.8,28.5z"/>
	</g>
	<g>
		<g>
			<path id="SVGID_00000005261961368127194030000010226365778378632362_" class="st0" d="M62.7,10.6l-46,59.5L30.5,30L9.9,42.8
				l24.4-27.4l-2.5,16.1L62.7,10.6z M33.8,28.5l2.7-17.7L2.2,49.4l25.6-16L12.4,78l57-73.7L33.8,28.5z"/>
		</g>
		<g>
			<defs>
				<path id="SVGID_00000168086595794772806770000011654756051617887388_" d="M62.7,10.6l-46,59.5L30.5,30L9.9,42.8l24.4-27.4
					l-2.5,16.1L62.7,10.6z M33.8,28.5l2.7-17.7L2.2,49.4l25.6-16L12.4,78l57-73.7L33.8,28.5z"/>
			</defs>
			<use xlink:href="#SVGID_00000168086595794772806770000011654756051617887388_"  style="overflow:visible;fill:#97DF5F;"/>
			<clipPath id="SVGID_00000096032544506502265670000011805087149339556255_">
				<use xlink:href="#SVGID_00000168086595794772806770000011654756051617887388_"  style="overflow:visible;"/>
			</clipPath>
			
				<rect x="2.1" y="4" style="clip-path:url(#SVGID_00000096032544506502265670000011805087149339556255_);fill:#97DF5F;" width="67.4" height="73.9"/>
		</g>
	</g>
</g>
<g>
	<path class="st0" d="M50.5,52.8c-2.4,0-4.1-0.5-5-1.6c-0.6-0.7-1-1.8-1-3.1c0-0.6,0.1-1.2,0.2-1.8l1-5.8c0.8-4.3,3.5-6.4,8.2-6.4
		c2,0,3.4,0.4,4.5,1.2s1.5,2,1.5,3.4c0,0.7-0.1,1.3-0.3,2s-0.4,1.2-0.6,1.5l-0.3,0.5h-4.5c0.6-0.6,0.8-1.5,0.8-2.7
		c0-0.6-0.2-1.1-0.5-1.5S53.7,38,53.1,38c-1.7,0-2.7,1-3,2.8l-0.9,5.1c-0.1,0.4-0.1,0.9-0.1,1.3c0,1.1,0.7,1.7,2,1.7
		c1.6,0,2.6-0.9,2.9-2.7h4.6l-0.1,0.7C57.8,50.8,55.1,52.8,50.5,52.8z"/>
	<path class="st0" d="M71,34.2c1.9,0,3.3,0.4,4.1,1.3c0.6,0.6,0.9,1.5,0.9,2.4c0,0.3,0,0.7-0.1,1.1l-0.3,2c-0.2,1.1-0.6,2-1.1,2.7
		s-1.1,1.2-1.7,1.4l2.3,7.4H70l-2.1-6.8h-1.6l-1,6.8h-4.9l3.2-18.2H71V34.2z M69.4,38.1h-1.9l-0.7,4.4h1.8c0.9,0,1.5-0.2,1.9-0.7
		c0.4-0.4,0.6-1,0.6-1.7C71.1,38.8,70.6,38.1,69.4,38.1z"/>
	<path class="st0" d="M89.8,52.4H77.1l3.2-18.2H93l-0.7,4h-8.2l-0.6,3.4h6.7l-0.7,4h-6.7l-0.5,3h8.2L89.8,52.4z"/>
	<path class="st0" d="M101.7,52.4l0.2-4h-4.2l-1.2,4h-4.8L98,34.2h8.4l0.1,18.2H101.7z M100.7,38.6l-2,6.4h3.3l0.3-6.4H100.7z"/>
	<path class="st0" d="M125.5,38.1h-6.2l-2.5,14.3h-4.6l2.5-14.3h-6.3l0.7-4h17.1L125.5,38.1z"/>
	<path class="st0" d="M132.9,34.2l-3.2,18.2h-4.6l3.2-18.2H132.9z"/>
	<path class="st0" d="M140.7,48l4.8-13.8h4.9l-6.9,18.2h-8.1l-0.2-18.2h5L140.1,48H140.7z"/>
	<path class="st0" d="M162.4,52.4h-12.7l3.2-18.2h12.7l-0.7,4h-8.2l-0.6,3.4h6.7l-0.7,4h-6.7l-0.5,3h8.2L162.4,52.4z"/>
	<path class="st0" d="M170.1,47.2c0,1.2,0.8,1.8,2.5,1.8s2.5-0.5,2.5-1.6c0-0.6-0.3-1-0.9-1.4c-0.6-0.3-1.3-0.7-2.1-0.9
		s-1.6-0.5-2.5-0.8s-1.5-0.8-2.1-1.5s-0.9-1.5-0.9-2.5c0-4.2,2.7-6.4,8.2-6.4c2,0,3.5,0.4,4.5,1.1s1.5,1.8,1.5,3.1
		c0,0.5-0.1,1-0.2,1.4s-0.3,0.8-0.4,1l-0.2,0.3h-4.5c0.4-0.4,0.6-0.9,0.6-1.5c0-1.1-0.7-1.7-2.1-1.7c-1.8,0-2.7,0.6-2.7,1.7
		c0,0.6,0.3,1,0.9,1.4s1.3,0.6,2.1,0.8s1.6,0.4,2.5,0.7s1.5,0.8,2.1,1.4c0.6,0.7,0.9,1.5,0.9,2.6c0,2.2-0.6,3.7-1.9,4.8
		c-1.3,1-3.3,1.6-5.9,1.6s-4.5-0.5-5.5-1.4c-0.7-0.7-1.1-1.7-1.1-2.9c0-0.5,0.1-1,0.1-1.5l0.1-0.4h4.6l-0.1,0.3
		C170.1,46.9,170.1,47.1,170.1,47.2z"/>
	<path class="st0" d="M199.7,38.1h-6.2L191,52.4h-4.6l2.5-14.3h-6.3l0.7-4h17.1L199.7,38.1z"/>
	<path class="st0" d="M216.6,34.2l-3.2,18.2h-4.6l1.2-6.6h-5l-1.1,6.6h-4.6l3.2-18.2h4.6l-1.4,7.7h4.9l1.4-7.7H216.6z"/>
</g>
</svg>
